<svg xmlns="http://www.w3.org/2000/svg" viewBox="0 0 480 210" width="480" height="210" role="presentation">
<defs><linearGradient id="g-ig-6672" gradientTransform="rotate(53)"><stop offset="0%" stop-color="#240b3d"/><stop offset="58%" stop-color="#7e2181"/><stop offset="100%" stop-color="#f062a0"/></linearGradient>
<radialGradient id="g-ig-6672-v" cx="50%" cy="115%" r="85%"><stop offset="0%" stop-color="#000" stop-opacity=".55"/><stop offset="100%" stop-color="#000" stop-opacity="0"/></radialGradient></defs>
<rect width="480" height="210" fill="url(#g-ig-6672)"/><g><circle cx="178" cy="77" r="51" fill="none" stroke="#f062a0" stroke-width="1.5" opacity="0.18"/><circle cx="254" cy="87" r="90" fill="none" stroke="#f062a0" stroke-width="1.5" opacity="0.15"/><circle cx="326" cy="78" r="115" fill="none" stroke="#f062a0" stroke-width="1.5" opacity="0.15"/><circle cx="275" cy="51" r="136" fill="none" stroke="#f062a0" stroke-width="1.5" opacity="0.24"/><circle cx="165" cy="173" r="158" fill="none" stroke="#f062a0" stroke-width="1.5" opacity="0.22"/></g><g><rect x="24" y="104" width="12" height="92" rx="6" fill="#f062a0" opacity="0.19"/><rect x="74" y="102" width="12" height="94" rx="6" fill="#f062a0" opacity="0.23"/><rect x="124" y="98" width="12" height="98" rx="6" fill="#f062a0" opacity="0.25"/><rect x="174" y="174" width="12" height="22" rx="6" fill="#f062a0" opacity="0.21"/><rect x="224" y="144" width="12" height="52" rx="6" fill="#f062a0" opacity="0.18"/><rect x="274" y="90" width="12" height="106" rx="6" fill="#f062a0" opacity="0.24"/><rect x="324" y="165" width="12" height="31" rx="6" fill="#f062a0" opacity="0.12"/><rect x="374" y="139" width="12" height="57" rx="6" fill="#f062a0" opacity="0.16"/><rect x="424" y="147" width="12" height="49" rx="6" fill="#f062a0" opacity="0.17"/></g><rect width="480" height="210" fill="url(#g-ig-6672-v)"/></svg>