<svg xmlns="http://www.w3.org/2000/svg" viewBox="0 0 480 210" width="480" height="210" role="presentation">
<defs><linearGradient id="g-ig-7781" gradientTransform="rotate(24)"><stop offset="0%" stop-color="#2c0a35"/><stop offset="58%" stop-color="#a01d68"/><stop offset="100%" stop-color="#ff7a45"/></linearGradient>
<radialGradient id="g-ig-7781-v" cx="50%" cy="115%" r="85%"><stop offset="0%" stop-color="#000" stop-opacity=".55"/><stop offset="100%" stop-color="#000" stop-opacity="0"/></radialGradient></defs>
<rect width="480" height="210" fill="url(#g-ig-7781)"/><g><circle cx="115" cy="117" r="40" fill="none" stroke="#ff7a45" stroke-width="1.5" opacity="0.19"/><circle cx="140" cy="141" r="72" fill="none" stroke="#ff7a45" stroke-width="1.5" opacity="0.18"/><circle cx="165" cy="27" r="117" fill="none" stroke="#ff7a45" stroke-width="1.5" opacity="0.14"/><circle cx="277" cy="104" r="145" fill="none" stroke="#ff7a45" stroke-width="1.5" opacity="0.24"/><circle cx="146" cy="34" r="158" fill="none" stroke="#ff7a45" stroke-width="1.5" opacity="0.16"/></g><g><rect x="24" y="88" width="12" height="108" rx="6" fill="#ff7a45" opacity="0.14"/><rect x="74" y="119" width="12" height="77" rx="6" fill="#ff7a45" opacity="0.26"/><rect x="124" y="120" width="12" height="76" rx="6" fill="#ff7a45" opacity="0.13"/><rect x="174" y="161" width="12" height="35" rx="6" fill="#ff7a45" opacity="0.21"/><rect x="224" y="157" width="12" height="39" rx="6" fill="#ff7a45" opacity="0.16"/><rect x="274" y="108" width="12" height="88" rx="6" fill="#ff7a45" opacity="0.22"/><rect x="324" y="90" width="12" height="106" rx="6" fill="#ff7a45" opacity="0.23"/><rect x="374" y="167" width="12" height="29" rx="6" fill="#ff7a45" opacity="0.22"/><rect x="424" y="137" width="12" height="59" rx="6" fill="#ff7a45" opacity="0.25"/></g><rect width="480" height="210" fill="url(#g-ig-7781-v)"/></svg>