<svg xmlns="http://www.w3.org/2000/svg" viewBox="0 0 480 210" width="480" height="210" role="presentation">
<defs><linearGradient id="g-s-08" gradientTransform="rotate(49)"><stop offset="0%" stop-color="#06183f"/><stop offset="58%" stop-color="#134fa8"/><stop offset="100%" stop-color="#4fa8ff"/></linearGradient>
<radialGradient id="g-s-08-v" cx="50%" cy="115%" r="85%"><stop offset="0%" stop-color="#000" stop-opacity=".55"/><stop offset="100%" stop-color="#000" stop-opacity="0"/></radialGradient></defs>
<rect width="480" height="210" fill="url(#g-s-08)"/><g><circle cx="140" cy="101" r="66" fill="none" stroke="#4fa8ff" stroke-width="1.5" opacity="0.14"/><circle cx="404" cy="180" r="72" fill="none" stroke="#4fa8ff" stroke-width="1.5" opacity="0.14"/><circle cx="386" cy="23" r="114" fill="none" stroke="#4fa8ff" stroke-width="1.5" opacity="0.15"/><circle cx="278" cy="98" r="131" fill="none" stroke="#4fa8ff" stroke-width="1.5" opacity="0.25"/><circle cx="384" cy="152" r="150" fill="none" stroke="#4fa8ff" stroke-width="1.5" opacity="0.16"/></g><g><rect x="24" y="153" width="12" height="43" rx="6" fill="#4fa8ff" opacity="0.25"/><rect x="74" y="112" width="12" height="84" rx="6" fill="#4fa8ff" opacity="0.17"/><rect x="124" y="142" width="12" height="54" rx="6" fill="#4fa8ff" opacity="0.13"/><rect x="174" y="175" width="12" height="21" rx="6" fill="#4fa8ff" opacity="0.13"/><rect x="224" y="147" width="12" height="49" rx="6" fill="#4fa8ff" opacity="0.23"/><rect x="274" y="121" width="12" height="75" rx="6" fill="#4fa8ff" opacity="0.21"/><rect x="324" y="165" width="12" height="31" rx="6" fill="#4fa8ff" opacity="0.18"/><rect x="374" y="94" width="12" height="102" rx="6" fill="#4fa8ff" opacity="0.19"/><rect x="424" y="141" width="12" height="55" rx="6" fill="#4fa8ff" opacity="0.24"/></g><rect width="480" height="210" fill="url(#g-s-08-v)"/></svg>