<svg xmlns="http://www.w3.org/2000/svg" viewBox="0 0 480 210" width="480" height="210" role="presentation">
<defs><linearGradient id="g-s-15" gradientTransform="rotate(47)"><stop offset="0%" stop-color="#04202f"/><stop offset="58%" stop-color="#0a5d8c"/><stop offset="100%" stop-color="#3fbde8"/></linearGradient>
<radialGradient id="g-s-15-v" cx="50%" cy="115%" r="85%"><stop offset="0%" stop-color="#000" stop-opacity=".55"/><stop offset="100%" stop-color="#000" stop-opacity="0"/></radialGradient></defs>
<rect width="480" height="210" fill="url(#g-s-15)"/><g><circle cx="204" cy="33" r="46" fill="none" stroke="#3fbde8" stroke-width="1.5" opacity="0.17"/><circle cx="296" cy="45" r="94" fill="none" stroke="#3fbde8" stroke-width="1.5" opacity="0.20"/><circle cx="116" cy="99" r="97" fill="none" stroke="#3fbde8" stroke-width="1.5" opacity="0.25"/><circle cx="82" cy="71" r="125" fill="none" stroke="#3fbde8" stroke-width="1.5" opacity="0.18"/><circle cx="67" cy="125" r="146" fill="none" stroke="#3fbde8" stroke-width="1.5" opacity="0.11"/></g><g><rect x="24" y="128" width="12" height="68" rx="6" fill="#3fbde8" opacity="0.22"/><rect x="74" y="108" width="12" height="88" rx="6" fill="#3fbde8" opacity="0.22"/><rect x="124" y="135" width="12" height="61" rx="6" fill="#3fbde8" opacity="0.20"/><rect x="174" y="146" width="12" height="50" rx="6" fill="#3fbde8" opacity="0.16"/><rect x="224" y="123" width="12" height="73" rx="6" fill="#3fbde8" opacity="0.18"/><rect x="274" y="145" width="12" height="51" rx="6" fill="#3fbde8" opacity="0.15"/><rect x="324" y="176" width="12" height="20" rx="6" fill="#3fbde8" opacity="0.12"/><rect x="374" y="112" width="12" height="84" rx="6" fill="#3fbde8" opacity="0.17"/><rect x="424" y="127" width="12" height="69" rx="6" fill="#3fbde8" opacity="0.15"/></g><rect width="480" height="210" fill="url(#g-s-15-v)"/></svg>