<svg xmlns="http://www.w3.org/2000/svg" viewBox="0 0 480 210" width="480" height="210" role="presentation">
<defs><linearGradient id="g-s-24" gradientTransform="rotate(60)"><stop offset="0%" stop-color="#3d0713"/><stop offset="58%" stop-color="#a3122f"/><stop offset="100%" stop-color="#ff4d5e"/></linearGradient>
<radialGradient id="g-s-24-v" cx="50%" cy="115%" r="85%"><stop offset="0%" stop-color="#000" stop-opacity=".55"/><stop offset="100%" stop-color="#000" stop-opacity="0"/></radialGradient></defs>
<rect width="480" height="210" fill="url(#g-s-24)"/><g><circle cx="206" cy="100" r="60" fill="none" stroke="#ff4d5e" stroke-width="1.5" opacity="0.13"/><circle cx="70" cy="126" r="89" fill="none" stroke="#ff4d5e" stroke-width="1.5" opacity="0.26"/><circle cx="171" cy="34" r="103" fill="none" stroke="#ff4d5e" stroke-width="1.5" opacity="0.21"/><circle cx="116" cy="56" r="129" fill="none" stroke="#ff4d5e" stroke-width="1.5" opacity="0.24"/><circle cx="158" cy="126" r="151" fill="none" stroke="#ff4d5e" stroke-width="1.5" opacity="0.19"/></g><g><rect x="24" y="135" width="12" height="61" rx="6" fill="#ff4d5e" opacity="0.15"/><rect x="74" y="155" width="12" height="41" rx="6" fill="#ff4d5e" opacity="0.20"/><rect x="124" y="157" width="12" height="39" rx="6" fill="#ff4d5e" opacity="0.20"/><rect x="174" y="169" width="12" height="27" rx="6" fill="#ff4d5e" opacity="0.16"/><rect x="224" y="171" width="12" height="25" rx="6" fill="#ff4d5e" opacity="0.15"/><rect x="274" y="131" width="12" height="65" rx="6" fill="#ff4d5e" opacity="0.23"/><rect x="324" y="145" width="12" height="51" rx="6" fill="#ff4d5e" opacity="0.22"/><rect x="374" y="113" width="12" height="83" rx="6" fill="#ff4d5e" opacity="0.17"/><rect x="424" y="113" width="12" height="83" rx="6" fill="#ff4d5e" opacity="0.12"/></g><rect width="480" height="210" fill="url(#g-s-24-v)"/></svg>