<svg xmlns="http://www.w3.org/2000/svg" viewBox="0 0 480 210" width="480" height="210" role="presentation">
<defs><linearGradient id="g-tg-2277" gradientTransform="rotate(34)"><stop offset="0%" stop-color="#062b3c"/><stop offset="58%" stop-color="#1180b4"/><stop offset="100%" stop-color="#66dcff"/></linearGradient>
<radialGradient id="g-tg-2277-v" cx="50%" cy="115%" r="85%"><stop offset="0%" stop-color="#000" stop-opacity=".55"/><stop offset="100%" stop-color="#000" stop-opacity="0"/></radialGradient></defs>
<rect width="480" height="210" fill="url(#g-tg-2277)"/><g><circle cx="134" cy="166" r="49" fill="none" stroke="#66dcff" stroke-width="1.5" opacity="0.24"/><circle cx="413" cy="80" r="89" fill="none" stroke="#66dcff" stroke-width="1.5" opacity="0.15"/><circle cx="304" cy="183" r="120" fill="none" stroke="#66dcff" stroke-width="1.5" opacity="0.19"/><circle cx="171" cy="142" r="147" fill="none" stroke="#66dcff" stroke-width="1.5" opacity="0.24"/><circle cx="168" cy="83" r="151" fill="none" stroke="#66dcff" stroke-width="1.5" opacity="0.20"/></g><g><rect x="24" y="96" width="12" height="100" rx="6" fill="#66dcff" opacity="0.16"/><rect x="74" y="118" width="12" height="78" rx="6" fill="#66dcff" opacity="0.16"/><rect x="124" y="100" width="12" height="96" rx="6" fill="#66dcff" opacity="0.13"/><rect x="174" y="138" width="12" height="58" rx="6" fill="#66dcff" opacity="0.13"/><rect x="224" y="129" width="12" height="67" rx="6" fill="#66dcff" opacity="0.14"/><rect x="274" y="138" width="12" height="58" rx="6" fill="#66dcff" opacity="0.13"/><rect x="324" y="166" width="12" height="30" rx="6" fill="#66dcff" opacity="0.25"/><rect x="374" y="139" width="12" height="57" rx="6" fill="#66dcff" opacity="0.25"/><rect x="424" y="104" width="12" height="92" rx="6" fill="#66dcff" opacity="0.18"/></g><rect width="480" height="210" fill="url(#g-tg-2277-v)"/></svg>