<svg xmlns="http://www.w3.org/2000/svg" viewBox="0 0 480 210" width="480" height="210" role="presentation">
<defs><linearGradient id="g-tg-6650" gradientTransform="rotate(55)"><stop offset="0%" stop-color="#062b3c"/><stop offset="58%" stop-color="#1180b4"/><stop offset="100%" stop-color="#66dcff"/></linearGradient>
<radialGradient id="g-tg-6650-v" cx="50%" cy="115%" r="85%"><stop offset="0%" stop-color="#000" stop-opacity=".55"/><stop offset="100%" stop-color="#000" stop-opacity="0"/></radialGradient></defs>
<rect width="480" height="210" fill="url(#g-tg-6650)"/><g><circle cx="409" cy="89" r="68" fill="none" stroke="#66dcff" stroke-width="1.5" opacity="0.19"/><circle cx="403" cy="103" r="76" fill="none" stroke="#66dcff" stroke-width="1.5" opacity="0.23"/><circle cx="347" cy="101" r="99" fill="none" stroke="#66dcff" stroke-width="1.5" opacity="0.19"/><circle cx="206" cy="106" r="136" fill="none" stroke="#66dcff" stroke-width="1.5" opacity="0.23"/><circle cx="265" cy="104" r="162" fill="none" stroke="#66dcff" stroke-width="1.5" opacity="0.22"/></g><g><rect x="24" y="127" width="12" height="69" rx="6" fill="#66dcff" opacity="0.20"/><rect x="74" y="139" width="12" height="57" rx="6" fill="#66dcff" opacity="0.20"/><rect x="124" y="113" width="12" height="83" rx="6" fill="#66dcff" opacity="0.22"/><rect x="174" y="93" width="12" height="103" rx="6" fill="#66dcff" opacity="0.19"/><rect x="224" y="132" width="12" height="64" rx="6" fill="#66dcff" opacity="0.13"/><rect x="274" y="156" width="12" height="40" rx="6" fill="#66dcff" opacity="0.17"/><rect x="324" y="91" width="12" height="105" rx="6" fill="#66dcff" opacity="0.20"/><rect x="374" y="172" width="12" height="24" rx="6" fill="#66dcff" opacity="0.23"/><rect x="424" y="97" width="12" height="99" rx="6" fill="#66dcff" opacity="0.12"/></g><rect width="480" height="210" fill="url(#g-tg-6650-v)"/></svg>