<svg xmlns="http://www.w3.org/2000/svg" viewBox="0 0 480 210" width="480" height="210" role="presentation">
<defs><linearGradient id="g-tg-8867" gradientTransform="rotate(32)"><stop offset="0%" stop-color="#04202f"/><stop offset="58%" stop-color="#0a5d8c"/><stop offset="100%" stop-color="#3fbde8"/></linearGradient>
<radialGradient id="g-tg-8867-v" cx="50%" cy="115%" r="85%"><stop offset="0%" stop-color="#000" stop-opacity=".55"/><stop offset="100%" stop-color="#000" stop-opacity="0"/></radialGradient></defs>
<rect width="480" height="210" fill="url(#g-tg-8867)"/><g><circle cx="320" cy="133" r="69" fill="none" stroke="#3fbde8" stroke-width="1.5" opacity="0.12"/><circle cx="146" cy="114" r="83" fill="none" stroke="#3fbde8" stroke-width="1.5" opacity="0.12"/><circle cx="133" cy="26" r="98" fill="none" stroke="#3fbde8" stroke-width="1.5" opacity="0.18"/><circle cx="402" cy="23" r="124" fill="none" stroke="#3fbde8" stroke-width="1.5" opacity="0.18"/><circle cx="71" cy="190" r="157" fill="none" stroke="#3fbde8" stroke-width="1.5" opacity="0.11"/></g><g><rect x="24" y="148" width="12" height="48" rx="6" fill="#3fbde8" opacity="0.13"/><rect x="74" y="91" width="12" height="105" rx="6" fill="#3fbde8" opacity="0.17"/><rect x="124" y="112" width="12" height="84" rx="6" fill="#3fbde8" opacity="0.18"/><rect x="174" y="141" width="12" height="55" rx="6" fill="#3fbde8" opacity="0.18"/><rect x="224" y="123" width="12" height="73" rx="6" fill="#3fbde8" opacity="0.13"/><rect x="274" y="142" width="12" height="54" rx="6" fill="#3fbde8" opacity="0.24"/><rect x="324" y="122" width="12" height="74" rx="6" fill="#3fbde8" opacity="0.25"/><rect x="374" y="153" width="12" height="43" rx="6" fill="#3fbde8" opacity="0.22"/><rect x="424" y="136" width="12" height="60" rx="6" fill="#3fbde8" opacity="0.13"/></g><rect width="480" height="210" fill="url(#g-tg-8867-v)"/></svg>