<svg xmlns="http://www.w3.org/2000/svg" viewBox="0 0 480 210" width="480" height="210" role="presentation">
<defs><linearGradient id="g-yt-2214" gradientTransform="rotate(40)"><stop offset="0%" stop-color="#3d0713"/><stop offset="58%" stop-color="#a3122f"/><stop offset="100%" stop-color="#ff4d5e"/></linearGradient>
<radialGradient id="g-yt-2214-v" cx="50%" cy="115%" r="85%"><stop offset="0%" stop-color="#000" stop-opacity=".55"/><stop offset="100%" stop-color="#000" stop-opacity="0"/></radialGradient></defs>
<rect width="480" height="210" fill="url(#g-yt-2214)"/><g><circle cx="292" cy="101" r="48" fill="none" stroke="#ff4d5e" stroke-width="1.5" opacity="0.21"/><circle cx="374" cy="121" r="91" fill="none" stroke="#ff4d5e" stroke-width="1.5" opacity="0.16"/><circle cx="377" cy="169" r="103" fill="none" stroke="#ff4d5e" stroke-width="1.5" opacity="0.15"/><circle cx="193" cy="41" r="129" fill="none" stroke="#ff4d5e" stroke-width="1.5" opacity="0.11"/><circle cx="222" cy="114" r="144" fill="none" stroke="#ff4d5e" stroke-width="1.5" opacity="0.21"/></g><g><rect x="24" y="177" width="12" height="19" rx="6" fill="#ff4d5e" opacity="0.17"/><rect x="74" y="112" width="12" height="84" rx="6" fill="#ff4d5e" opacity="0.21"/><rect x="124" y="119" width="12" height="77" rx="6" fill="#ff4d5e" opacity="0.22"/><rect x="174" y="138" width="12" height="58" rx="6" fill="#ff4d5e" opacity="0.23"/><rect x="224" y="140" width="12" height="56" rx="6" fill="#ff4d5e" opacity="0.20"/><rect x="274" y="118" width="12" height="78" rx="6" fill="#ff4d5e" opacity="0.15"/><rect x="324" y="93" width="12" height="103" rx="6" fill="#ff4d5e" opacity="0.22"/><rect x="374" y="166" width="12" height="30" rx="6" fill="#ff4d5e" opacity="0.22"/><rect x="424" y="163" width="12" height="33" rx="6" fill="#ff4d5e" opacity="0.25"/></g><rect width="480" height="210" fill="url(#g-yt-2214-v)"/></svg>