<svg xmlns="http://www.w3.org/2000/svg" viewBox="0 0 480 210" width="480" height="210" role="presentation">
<defs><linearGradient id="g-yt-7730" gradientTransform="rotate(39)"><stop offset="0%" stop-color="#450a12"/><stop offset="58%" stop-color="#b81b2e"/><stop offset="100%" stop-color="#ff6b6b"/></linearGradient>
<radialGradient id="g-yt-7730-v" cx="50%" cy="115%" r="85%"><stop offset="0%" stop-color="#000" stop-opacity=".55"/><stop offset="100%" stop-color="#000" stop-opacity="0"/></radialGradient></defs>
<rect width="480" height="210" fill="url(#g-yt-7730)"/><g><circle cx="205" cy="81" r="53" fill="none" stroke="#ff6b6b" stroke-width="1.5" opacity="0.18"/><circle cx="232" cy="124" r="90" fill="none" stroke="#ff6b6b" stroke-width="1.5" opacity="0.20"/><circle cx="318" cy="152" r="104" fill="none" stroke="#ff6b6b" stroke-width="1.5" opacity="0.16"/><circle cx="347" cy="45" r="121" fill="none" stroke="#ff6b6b" stroke-width="1.5" opacity="0.20"/><circle cx="128" cy="72" r="154" fill="none" stroke="#ff6b6b" stroke-width="1.5" opacity="0.19"/></g><g><rect x="24" y="168" width="12" height="28" rx="6" fill="#ff6b6b" opacity="0.24"/><rect x="74" y="175" width="12" height="21" rx="6" fill="#ff6b6b" opacity="0.17"/><rect x="124" y="136" width="12" height="60" rx="6" fill="#ff6b6b" opacity="0.25"/><rect x="174" y="106" width="12" height="90" rx="6" fill="#ff6b6b" opacity="0.25"/><rect x="224" y="166" width="12" height="30" rx="6" fill="#ff6b6b" opacity="0.20"/><rect x="274" y="119" width="12" height="77" rx="6" fill="#ff6b6b" opacity="0.24"/><rect x="324" y="166" width="12" height="30" rx="6" fill="#ff6b6b" opacity="0.24"/><rect x="374" y="147" width="12" height="49" rx="6" fill="#ff6b6b" opacity="0.25"/><rect x="424" y="143" width="12" height="53" rx="6" fill="#ff6b6b" opacity="0.16"/></g><rect width="480" height="210" fill="url(#g-yt-7730-v)"/></svg>